<mxfile host="app.diagrams.net" agent="Mozilla/5.0 (Macintosh; Intel Mac OS X 10_15_7) AppleWebKit/537.36 (KHTML, like Gecko) Chrome/130.0.0.0 Safari/537.36" version="24.8.2">
  <diagram name="Page-1" id="SwxaGzV2jB1BnNqE1mJ0">
    <mxGraphModel dx="226" dy="1814" grid="0" gridSize="10" guides="1" tooltips="1" connect="1" arrows="1" fold="1" page="0" pageScale="1" pageWidth="850" pageHeight="1100" math="0" shadow="0">
      <root>
        <mxCell id="0" />
        <mxCell id="1" parent="0" />
        <mxCell id="fN-8wy9HbrontkFJWj6x-1" value="Soccer" style="whiteSpace=wrap;html=1;align=center;" vertex="1" parent="1">
          <mxGeometry x="1516" y="-803" width="100" height="40" as="geometry" />
        </mxCell>
        <mxCell id="fN-8wy9HbrontkFJWj6x-2" value="Soccer Team" style="whiteSpace=wrap;html=1;align=center;" vertex="1" parent="1">
          <mxGeometry x="1324" y="-916" width="100" height="40" as="geometry" />
        </mxCell>
        <mxCell id="fN-8wy9HbrontkFJWj6x-24" style="rounded=0;orthogonalLoop=1;jettySize=auto;html=1;exitX=0.5;exitY=1;exitDx=0;exitDy=0;endArrow=none;endFill=0;" edge="1" parent="1" source="fN-8wy9HbrontkFJWj6x-3" target="fN-8wy9HbrontkFJWj6x-2">
          <mxGeometry relative="1" as="geometry" />
        </mxCell>
        <mxCell id="fN-8wy9HbrontkFJWj6x-3" value="Name" style="ellipse;whiteSpace=wrap;html=1;align=center;" vertex="1" parent="1">
          <mxGeometry x="1255" y="-1034" width="100" height="40" as="geometry" />
        </mxCell>
        <mxCell id="fN-8wy9HbrontkFJWj6x-23" style="rounded=0;orthogonalLoop=1;jettySize=auto;html=1;exitX=0.5;exitY=1;exitDx=0;exitDy=0;endArrow=none;endFill=0;" edge="1" parent="1" source="fN-8wy9HbrontkFJWj6x-4" target="fN-8wy9HbrontkFJWj6x-2">
          <mxGeometry relative="1" as="geometry" />
        </mxCell>
        <mxCell id="fN-8wy9HbrontkFJWj6x-4" value="ID" style="ellipse;whiteSpace=wrap;html=1;align=center;fontStyle=4;" vertex="1" parent="1">
          <mxGeometry x="1382" y="-1018" width="100" height="40" as="geometry" />
        </mxCell>
        <mxCell id="fN-8wy9HbrontkFJWj6x-25" style="rounded=0;orthogonalLoop=1;jettySize=auto;html=1;exitX=1;exitY=1;exitDx=0;exitDy=0;entryX=0;entryY=0.25;entryDx=0;entryDy=0;endArrow=none;endFill=0;" edge="1" parent="1" source="fN-8wy9HbrontkFJWj6x-5" target="fN-8wy9HbrontkFJWj6x-2">
          <mxGeometry relative="1" as="geometry" />
        </mxCell>
        <mxCell id="fN-8wy9HbrontkFJWj6x-5" value="Main Stadium" style="ellipse;whiteSpace=wrap;html=1;align=center;" vertex="1" parent="1">
          <mxGeometry x="1173" y="-986" width="100" height="40" as="geometry" />
        </mxCell>
        <mxCell id="fN-8wy9HbrontkFJWj6x-26" style="rounded=0;orthogonalLoop=1;jettySize=auto;html=1;exitX=1;exitY=0.5;exitDx=0;exitDy=0;endArrow=none;endFill=0;" edge="1" parent="1" source="fN-8wy9HbrontkFJWj6x-6" target="fN-8wy9HbrontkFJWj6x-2">
          <mxGeometry relative="1" as="geometry" />
        </mxCell>
        <mxCell id="fN-8wy9HbrontkFJWj6x-6" value="City" style="ellipse;whiteSpace=wrap;html=1;align=center;" vertex="1" parent="1">
          <mxGeometry x="1149" y="-912" width="100" height="40" as="geometry" />
        </mxCell>
        <mxCell id="fN-8wy9HbrontkFJWj6x-21" style="rounded=0;orthogonalLoop=1;jettySize=auto;html=1;exitX=0;exitY=1;exitDx=0;exitDy=0;entryX=1;entryY=0;entryDx=0;entryDy=0;endArrow=none;endFill=0;" edge="1" parent="1" source="fN-8wy9HbrontkFJWj6x-7" target="fN-8wy9HbrontkFJWj6x-1">
          <mxGeometry relative="1" as="geometry" />
        </mxCell>
        <mxCell id="fN-8wy9HbrontkFJWj6x-7" value="Player" style="whiteSpace=wrap;html=1;align=center;" vertex="1" parent="1">
          <mxGeometry x="1750" y="-912" width="100" height="40" as="geometry" />
        </mxCell>
        <mxCell id="fN-8wy9HbrontkFJWj6x-14" style="rounded=0;orthogonalLoop=1;jettySize=auto;html=1;exitX=0.5;exitY=1;exitDx=0;exitDy=0;endArrow=none;endFill=0;" edge="1" parent="1" source="fN-8wy9HbrontkFJWj6x-8" target="fN-8wy9HbrontkFJWj6x-7">
          <mxGeometry relative="1" as="geometry" />
        </mxCell>
        <mxCell id="fN-8wy9HbrontkFJWj6x-8" value="Number" style="ellipse;whiteSpace=wrap;html=1;align=center;fontStyle=4;" vertex="1" parent="1">
          <mxGeometry x="1750" y="-1020" width="100" height="40" as="geometry" />
        </mxCell>
        <mxCell id="fN-8wy9HbrontkFJWj6x-15" style="rounded=0;orthogonalLoop=1;jettySize=auto;html=1;exitX=0;exitY=1;exitDx=0;exitDy=0;endArrow=none;endFill=0;" edge="1" parent="1" source="fN-8wy9HbrontkFJWj6x-9" target="fN-8wy9HbrontkFJWj6x-7">
          <mxGeometry relative="1" as="geometry" />
        </mxCell>
        <mxCell id="fN-8wy9HbrontkFJWj6x-9" value="Name" style="ellipse;whiteSpace=wrap;html=1;align=center;" vertex="1" parent="1">
          <mxGeometry x="1867" y="-1020" width="100" height="40" as="geometry" />
        </mxCell>
        <mxCell id="fN-8wy9HbrontkFJWj6x-17" style="rounded=0;orthogonalLoop=1;jettySize=auto;html=1;exitX=0;exitY=0.5;exitDx=0;exitDy=0;entryX=1;entryY=0;entryDx=0;entryDy=0;endArrow=none;endFill=0;" edge="1" parent="1" source="fN-8wy9HbrontkFJWj6x-10" target="fN-8wy9HbrontkFJWj6x-7">
          <mxGeometry relative="1" as="geometry" />
        </mxCell>
        <mxCell id="fN-8wy9HbrontkFJWj6x-10" value="Team" style="ellipse;whiteSpace=wrap;html=1;align=center;" vertex="1" parent="1">
          <mxGeometry x="1900" y="-961" width="100" height="40" as="geometry" />
        </mxCell>
        <mxCell id="fN-8wy9HbrontkFJWj6x-18" style="rounded=0;orthogonalLoop=1;jettySize=auto;html=1;exitX=0;exitY=0.5;exitDx=0;exitDy=0;endArrow=none;endFill=0;" edge="1" parent="1" source="fN-8wy9HbrontkFJWj6x-11" target="fN-8wy9HbrontkFJWj6x-7">
          <mxGeometry relative="1" as="geometry" />
        </mxCell>
        <mxCell id="fN-8wy9HbrontkFJWj6x-11" value="DOB" style="ellipse;whiteSpace=wrap;html=1;align=center;" vertex="1" parent="1">
          <mxGeometry x="1905" y="-908" width="100" height="40" as="geometry" />
        </mxCell>
        <mxCell id="fN-8wy9HbrontkFJWj6x-19" style="rounded=0;orthogonalLoop=1;jettySize=auto;html=1;exitX=0;exitY=0.5;exitDx=0;exitDy=0;entryX=1;entryY=1;entryDx=0;entryDy=0;endArrow=none;endFill=0;" edge="1" parent="1" source="fN-8wy9HbrontkFJWj6x-12" target="fN-8wy9HbrontkFJWj6x-7">
          <mxGeometry relative="1" as="geometry" />
        </mxCell>
        <mxCell id="fN-8wy9HbrontkFJWj6x-12" value="Start Year" style="ellipse;whiteSpace=wrap;html=1;align=center;" vertex="1" parent="1">
          <mxGeometry x="1900" y="-855" width="100" height="40" as="geometry" />
        </mxCell>
        <mxCell id="fN-8wy9HbrontkFJWj6x-13" value="Shirt Number" style="ellipse;whiteSpace=wrap;html=1;align=center;" vertex="1" parent="1">
          <mxGeometry x="1787" y="-843" width="100" height="40" as="geometry" />
        </mxCell>
        <mxCell id="fN-8wy9HbrontkFJWj6x-20" style="rounded=0;orthogonalLoop=1;jettySize=auto;html=1;exitX=0.5;exitY=0;exitDx=0;exitDy=0;entryX=0.933;entryY=0.986;entryDx=0;entryDy=0;entryPerimeter=0;endArrow=none;endFill=0;" edge="1" parent="1" source="fN-8wy9HbrontkFJWj6x-13" target="fN-8wy9HbrontkFJWj6x-7">
          <mxGeometry relative="1" as="geometry" />
        </mxCell>
        <mxCell id="fN-8wy9HbrontkFJWj6x-27" value="" style="edgeStyle=entityRelationEdgeStyle;fontSize=12;html=1;endArrow=ERzeroToMany;startArrow=ERzeroToOne;rounded=0;entryX=0;entryY=0.5;entryDx=0;entryDy=0;exitX=1;exitY=0.5;exitDx=0;exitDy=0;endSize=10;startSize=10;" edge="1" parent="1" source="fN-8wy9HbrontkFJWj6x-2" target="fN-8wy9HbrontkFJWj6x-7">
          <mxGeometry width="100" height="100" relative="1" as="geometry">
            <mxPoint x="1540" y="-864" as="sourcePoint" />
            <mxPoint x="1640" y="-964" as="targetPoint" />
          </mxGeometry>
        </mxCell>
        <mxCell id="fN-8wy9HbrontkFJWj6x-48" style="rounded=0;orthogonalLoop=1;jettySize=auto;html=1;exitX=1;exitY=0.5;exitDx=0;exitDy=0;entryX=0;entryY=1;entryDx=0;entryDy=0;endArrow=none;endFill=0;" edge="1" parent="1" source="fN-8wy9HbrontkFJWj6x-28" target="fN-8wy9HbrontkFJWj6x-1">
          <mxGeometry relative="1" as="geometry" />
        </mxCell>
        <mxCell id="fN-8wy9HbrontkFJWj6x-59" style="rounded=0;orthogonalLoop=1;jettySize=auto;html=1;exitX=1;exitY=1;exitDx=0;exitDy=0;endArrow=none;endFill=0;" edge="1" parent="1" source="fN-8wy9HbrontkFJWj6x-28" target="fN-8wy9HbrontkFJWj6x-58">
          <mxGeometry relative="1" as="geometry" />
        </mxCell>
        <mxCell id="fN-8wy9HbrontkFJWj6x-28" value="Match" style="whiteSpace=wrap;html=1;align=center;" vertex="1" parent="1">
          <mxGeometry x="1321" y="-708" width="100" height="40" as="geometry" />
        </mxCell>
        <mxCell id="fN-8wy9HbrontkFJWj6x-45" style="rounded=0;orthogonalLoop=1;jettySize=auto;html=1;exitX=1;exitY=0.5;exitDx=0;exitDy=0;endArrow=none;endFill=0;" edge="1" parent="1" source="fN-8wy9HbrontkFJWj6x-29" target="fN-8wy9HbrontkFJWj6x-28">
          <mxGeometry relative="1" as="geometry" />
        </mxCell>
        <mxCell id="fN-8wy9HbrontkFJWj6x-29" value="Host Team" style="ellipse;whiteSpace=wrap;html=1;align=center;" vertex="1" parent="1">
          <mxGeometry x="1186" y="-731" width="100" height="40" as="geometry" />
        </mxCell>
        <mxCell id="fN-8wy9HbrontkFJWj6x-47" style="rounded=0;orthogonalLoop=1;jettySize=auto;html=1;exitX=0.5;exitY=1;exitDx=0;exitDy=0;entryX=0.5;entryY=0;entryDx=0;entryDy=0;endArrow=none;endFill=0;" edge="1" parent="1" source="fN-8wy9HbrontkFJWj6x-30" target="fN-8wy9HbrontkFJWj6x-28">
          <mxGeometry relative="1" as="geometry" />
        </mxCell>
        <mxCell id="fN-8wy9HbrontkFJWj6x-30" value="Guest Team" style="ellipse;whiteSpace=wrap;html=1;align=center;" vertex="1" parent="1">
          <mxGeometry x="1326" y="-792" width="100" height="40" as="geometry" />
        </mxCell>
        <mxCell id="fN-8wy9HbrontkFJWj6x-46" style="rounded=0;orthogonalLoop=1;jettySize=auto;html=1;exitX=1;exitY=0.5;exitDx=0;exitDy=0;endArrow=none;endFill=0;" edge="1" parent="1" source="fN-8wy9HbrontkFJWj6x-31" target="fN-8wy9HbrontkFJWj6x-28">
          <mxGeometry relative="1" as="geometry" />
        </mxCell>
        <mxCell id="fN-8wy9HbrontkFJWj6x-31" value="Host Stadium" style="ellipse;whiteSpace=wrap;html=1;align=center;" vertex="1" parent="1">
          <mxGeometry x="1217" y="-775" width="100" height="40" as="geometry" />
        </mxCell>
        <mxCell id="fN-8wy9HbrontkFJWj6x-44" style="rounded=0;orthogonalLoop=1;jettySize=auto;html=1;exitX=1;exitY=0.5;exitDx=0;exitDy=0;endArrow=none;endFill=0;" edge="1" parent="1" source="fN-8wy9HbrontkFJWj6x-32" target="fN-8wy9HbrontkFJWj6x-28">
          <mxGeometry relative="1" as="geometry" />
        </mxCell>
        <mxCell id="fN-8wy9HbrontkFJWj6x-32" value="Date Played" style="ellipse;whiteSpace=wrap;html=1;align=center;" vertex="1" parent="1">
          <mxGeometry x="1191" y="-685" width="100" height="40" as="geometry" />
        </mxCell>
        <mxCell id="fN-8wy9HbrontkFJWj6x-43" style="rounded=0;orthogonalLoop=1;jettySize=auto;html=1;exitX=0.5;exitY=0;exitDx=0;exitDy=0;entryX=0.75;entryY=1;entryDx=0;entryDy=0;endArrow=none;endFill=0;" edge="1" parent="1" source="fN-8wy9HbrontkFJWj6x-35" target="fN-8wy9HbrontkFJWj6x-28">
          <mxGeometry relative="1" as="geometry" />
        </mxCell>
        <mxCell id="fN-8wy9HbrontkFJWj6x-35" value="Result" style="ellipse;whiteSpace=wrap;html=1;align=center;" vertex="1" parent="1">
          <mxGeometry x="1249" y="-637" width="100" height="40" as="geometry" />
        </mxCell>
        <mxCell id="fN-8wy9HbrontkFJWj6x-62" style="rounded=0;orthogonalLoop=1;jettySize=auto;html=1;exitX=0.5;exitY=0;exitDx=0;exitDy=0;entryX=0;entryY=0.75;entryDx=0;entryDy=0;endArrow=none;endFill=0;" edge="1" parent="1" source="fN-8wy9HbrontkFJWj6x-36" target="fN-8wy9HbrontkFJWj6x-58">
          <mxGeometry relative="1" as="geometry" />
        </mxCell>
        <mxCell id="fN-8wy9HbrontkFJWj6x-36" value="Goals" style="ellipse;whiteSpace=wrap;html=1;align=center;" vertex="1" parent="1">
          <mxGeometry x="1349" y="-552" width="100" height="40" as="geometry" />
        </mxCell>
        <mxCell id="fN-8wy9HbrontkFJWj6x-61" style="rounded=0;orthogonalLoop=1;jettySize=auto;html=1;exitX=0.5;exitY=0;exitDx=0;exitDy=0;endArrow=none;endFill=0;" edge="1" parent="1" source="fN-8wy9HbrontkFJWj6x-37" target="fN-8wy9HbrontkFJWj6x-58">
          <mxGeometry relative="1" as="geometry" />
        </mxCell>
        <mxCell id="fN-8wy9HbrontkFJWj6x-37" value="Red Card" style="ellipse;whiteSpace=wrap;html=1;align=center;" vertex="1" parent="1">
          <mxGeometry x="1437" y="-502" width="100" height="40" as="geometry" />
        </mxCell>
        <mxCell id="fN-8wy9HbrontkFJWj6x-60" style="rounded=0;orthogonalLoop=1;jettySize=auto;html=1;exitX=0;exitY=0;exitDx=0;exitDy=0;entryX=0.75;entryY=1;entryDx=0;entryDy=0;endArrow=none;endFill=0;" edge="1" parent="1" source="fN-8wy9HbrontkFJWj6x-38" target="fN-8wy9HbrontkFJWj6x-58">
          <mxGeometry relative="1" as="geometry" />
        </mxCell>
        <mxCell id="fN-8wy9HbrontkFJWj6x-38" value="Yellow Card" style="ellipse;whiteSpace=wrap;html=1;align=center;" vertex="1" parent="1">
          <mxGeometry x="1545" y="-530" width="100" height="40" as="geometry" />
        </mxCell>
        <mxCell id="fN-8wy9HbrontkFJWj6x-58" value="Players" style="shape=ext;margin=3;double=1;whiteSpace=wrap;html=1;align=center;" vertex="1" parent="1">
          <mxGeometry x="1437" y="-616" width="100" height="40" as="geometry" />
        </mxCell>
        <mxCell id="fN-8wy9HbrontkFJWj6x-81" style="rounded=0;orthogonalLoop=1;jettySize=auto;html=1;exitX=1;exitY=1;exitDx=0;exitDy=0;entryX=0;entryY=0;entryDx=0;entryDy=0;endArrow=none;endFill=0;" edge="1" parent="1" target="fN-8wy9HbrontkFJWj6x-74">
          <mxGeometry relative="1" as="geometry">
            <mxPoint x="1808.0000000000002" y="-663" as="sourcePoint" />
          </mxGeometry>
        </mxCell>
        <mxCell id="fN-8wy9HbrontkFJWj6x-82" style="rounded=0;orthogonalLoop=1;jettySize=auto;html=1;exitX=1;exitY=0.5;exitDx=0;exitDy=0;entryX=0;entryY=0.5;entryDx=0;entryDy=0;endArrow=none;endFill=0;" edge="1" parent="1" target="fN-8wy9HbrontkFJWj6x-75">
          <mxGeometry relative="1" as="geometry">
            <mxPoint x="1808.0000000000002" y="-683" as="sourcePoint" />
          </mxGeometry>
        </mxCell>
        <mxCell id="fN-8wy9HbrontkFJWj6x-83" style="rounded=0;orthogonalLoop=1;jettySize=auto;html=1;exitX=1;exitY=0.25;exitDx=0;exitDy=0;entryX=0;entryY=0.5;entryDx=0;entryDy=0;endArrow=none;endFill=0;" edge="1" parent="1" target="fN-8wy9HbrontkFJWj6x-73">
          <mxGeometry relative="1" as="geometry">
            <mxPoint x="1808.0000000000002" y="-693" as="sourcePoint" />
          </mxGeometry>
        </mxCell>
        <mxCell id="fN-8wy9HbrontkFJWj6x-73" value="Name" style="ellipse;whiteSpace=wrap;html=1;align=center;" vertex="1" parent="1">
          <mxGeometry x="1836" y="-716" width="100" height="40" as="geometry" />
        </mxCell>
        <mxCell id="fN-8wy9HbrontkFJWj6x-74" value="DOB" style="ellipse;whiteSpace=wrap;html=1;align=center;" vertex="1" parent="1">
          <mxGeometry x="1829" y="-601" width="100" height="40" as="geometry" />
        </mxCell>
        <mxCell id="fN-8wy9HbrontkFJWj6x-75" value="Years Of Experience" style="ellipse;whiteSpace=wrap;html=1;align=center;" vertex="1" parent="1">
          <mxGeometry x="1857" y="-661" width="100" height="40" as="geometry" />
        </mxCell>
        <mxCell id="fN-8wy9HbrontkFJWj6x-78" style="edgeStyle=orthogonalEdgeStyle;rounded=0;orthogonalLoop=1;jettySize=auto;html=1;exitX=0.5;exitY=1;exitDx=0;exitDy=0;" edge="1" parent="1">
          <mxGeometry relative="1" as="geometry">
            <mxPoint x="1828" y="-723.0000000000002" as="sourcePoint" />
            <mxPoint x="1828" y="-723.0000000000002" as="targetPoint" />
          </mxGeometry>
        </mxCell>
        <mxCell id="fN-8wy9HbrontkFJWj6x-86" style="rounded=0;orthogonalLoop=1;jettySize=auto;html=1;exitX=0;exitY=0.5;exitDx=0;exitDy=0;entryX=0.5;entryY=0;entryDx=0;entryDy=0;endArrow=none;endFill=0;" edge="1" parent="1" source="fN-8wy9HbrontkFJWj6x-85">
          <mxGeometry relative="1" as="geometry">
            <mxPoint x="1758.0000000000002" y="-703" as="targetPoint" />
          </mxGeometry>
        </mxCell>
        <mxCell id="fN-8wy9HbrontkFJWj6x-85" value="ID" style="ellipse;whiteSpace=wrap;html=1;align=center;fontStyle=4;" vertex="1" parent="1">
          <mxGeometry x="1791" y="-775" width="100" height="40" as="geometry" />
        </mxCell>
        <mxCell id="fN-8wy9HbrontkFJWj6x-87" value="" style="edgeStyle=entityRelationEdgeStyle;fontSize=12;html=1;endArrow=ERzeroToMany;startArrow=ERzeroToOne;rounded=0;entryX=0;entryY=0.5;entryDx=0;entryDy=0;exitX=1;exitY=0.5;exitDx=0;exitDy=0;endSize=10;startSize=10;" edge="1" parent="1" source="fN-8wy9HbrontkFJWj6x-28">
          <mxGeometry width="100" height="100" relative="1" as="geometry">
            <mxPoint x="1437" y="-659" as="sourcePoint" />
            <mxPoint x="1708" y="-683" as="targetPoint" />
          </mxGeometry>
        </mxCell>
        <mxCell id="fN-8wy9HbrontkFJWj6x-124" style="rounded=0;orthogonalLoop=1;jettySize=auto;html=1;exitX=1;exitY=1;exitDx=0;exitDy=0;entryX=0;entryY=0;entryDx=0;entryDy=0;endArrow=none;endFill=0;" edge="1" parent="1" source="fN-8wy9HbrontkFJWj6x-88" target="fN-8wy9HbrontkFJWj6x-123">
          <mxGeometry relative="1" as="geometry" />
        </mxCell>
        <mxCell id="fN-8wy9HbrontkFJWj6x-88" value="Manufacturer" style="whiteSpace=wrap;html=1;align=center;" vertex="1" parent="1">
          <mxGeometry x="2738" y="-768" width="100" height="40" as="geometry" />
        </mxCell>
        <mxCell id="fN-8wy9HbrontkFJWj6x-97" style="rounded=0;orthogonalLoop=1;jettySize=auto;html=1;exitX=1;exitY=1;exitDx=0;exitDy=0;entryX=0.5;entryY=0;entryDx=0;entryDy=0;endArrow=none;endFill=0;" edge="1" parent="1" source="fN-8wy9HbrontkFJWj6x-90" target="fN-8wy9HbrontkFJWj6x-88">
          <mxGeometry relative="1" as="geometry" />
        </mxCell>
        <mxCell id="fN-8wy9HbrontkFJWj6x-90" value="Address" style="ellipse;whiteSpace=wrap;html=1;align=center;" vertex="1" parent="1">
          <mxGeometry x="2742" y="-861" width="100" height="40" as="geometry" />
        </mxCell>
        <mxCell id="fN-8wy9HbrontkFJWj6x-96" style="rounded=0;orthogonalLoop=1;jettySize=auto;html=1;exitX=1;exitY=1;exitDx=0;exitDy=0;entryX=0.25;entryY=0;entryDx=0;entryDy=0;endArrow=none;endFill=0;" edge="1" parent="1" source="fN-8wy9HbrontkFJWj6x-91" target="fN-8wy9HbrontkFJWj6x-88">
          <mxGeometry relative="1" as="geometry" />
        </mxCell>
        <mxCell id="fN-8wy9HbrontkFJWj6x-91" value="Phone Number" style="ellipse;whiteSpace=wrap;html=1;align=center;" vertex="1" parent="1">
          <mxGeometry x="2632" y="-843" width="100" height="40" as="geometry" />
        </mxCell>
        <mxCell id="fN-8wy9HbrontkFJWj6x-93" style="rounded=0;orthogonalLoop=1;jettySize=auto;html=1;exitX=1;exitY=0.5;exitDx=0;exitDy=0;endArrow=none;endFill=0;" edge="1" parent="1" source="fN-8wy9HbrontkFJWj6x-92" target="fN-8wy9HbrontkFJWj6x-88">
          <mxGeometry relative="1" as="geometry" />
        </mxCell>
        <mxCell id="fN-8wy9HbrontkFJWj6x-92" value="Name" style="ellipse;whiteSpace=wrap;html=1;align=center;fontStyle=4;" vertex="1" parent="1">
          <mxGeometry x="2568" y="-792" width="100" height="40" as="geometry" />
        </mxCell>
        <mxCell id="fN-8wy9HbrontkFJWj6x-133" style="rounded=0;orthogonalLoop=1;jettySize=auto;html=1;exitX=1;exitY=1;exitDx=0;exitDy=0;entryX=0.5;entryY=0;entryDx=0;entryDy=0;endArrow=none;endFill=0;" edge="1" parent="1" source="fN-8wy9HbrontkFJWj6x-99" target="fN-8wy9HbrontkFJWj6x-132">
          <mxGeometry relative="1" as="geometry" />
        </mxCell>
        <mxCell id="fN-8wy9HbrontkFJWj6x-99" value="Product Type" style="ellipse;whiteSpace=wrap;html=1;align=center;" vertex="1" parent="1">
          <mxGeometry x="3049" y="-847" width="100" height="40" as="geometry" />
        </mxCell>
        <mxCell id="fN-8wy9HbrontkFJWj6x-103" value="" style="edgeStyle=entityRelationEdgeStyle;fontSize=12;html=1;endArrow=ERzeroToMany;startArrow=ERzeroToOne;rounded=0;entryX=0;entryY=0.5;entryDx=0;entryDy=0;endSize=10;startSize=10;" edge="1" parent="1" source="fN-8wy9HbrontkFJWj6x-88">
          <mxGeometry width="100" height="100" relative="1" as="geometry">
            <mxPoint x="2661" y="-625" as="sourcePoint" />
            <mxPoint x="3045" y="-748" as="targetPoint" />
          </mxGeometry>
        </mxCell>
        <mxCell id="fN-8wy9HbrontkFJWj6x-125" style="rounded=0;orthogonalLoop=1;jettySize=auto;html=1;exitX=1;exitY=0;exitDx=0;exitDy=0;entryX=0;entryY=1;entryDx=0;entryDy=0;endArrow=none;endFill=0;" edge="1" parent="1" source="fN-8wy9HbrontkFJWj6x-104" target="fN-8wy9HbrontkFJWj6x-123">
          <mxGeometry relative="1" as="geometry" />
        </mxCell>
        <mxCell id="fN-8wy9HbrontkFJWj6x-104" value="Customer" style="whiteSpace=wrap;html=1;align=center;" vertex="1" parent="1">
          <mxGeometry x="2738" y="-626" width="100" height="40" as="geometry" />
        </mxCell>
        <mxCell id="fN-8wy9HbrontkFJWj6x-110" style="rounded=0;orthogonalLoop=1;jettySize=auto;html=1;exitX=1;exitY=1;exitDx=0;exitDy=0;entryX=0;entryY=0.25;entryDx=0;entryDy=0;endArrow=none;endFill=0;" edge="1" parent="1" source="fN-8wy9HbrontkFJWj6x-105" target="fN-8wy9HbrontkFJWj6x-104">
          <mxGeometry relative="1" as="geometry" />
        </mxCell>
        <mxCell id="fN-8wy9HbrontkFJWj6x-105" value="SSN" style="ellipse;whiteSpace=wrap;html=1;align=center;fontStyle=4;" vertex="1" parent="1">
          <mxGeometry x="2613" y="-682" width="100" height="40" as="geometry" />
        </mxCell>
        <mxCell id="fN-8wy9HbrontkFJWj6x-111" style="rounded=0;orthogonalLoop=1;jettySize=auto;html=1;entryX=0;entryY=0.5;entryDx=0;entryDy=0;endArrow=none;endFill=0;" edge="1" parent="1" source="fN-8wy9HbrontkFJWj6x-106" target="fN-8wy9HbrontkFJWj6x-104">
          <mxGeometry relative="1" as="geometry" />
        </mxCell>
        <mxCell id="fN-8wy9HbrontkFJWj6x-106" value="Email Address" style="ellipse;whiteSpace=wrap;html=1;align=center;" vertex="1" parent="1">
          <mxGeometry x="2605" y="-621" width="100" height="40" as="geometry" />
        </mxCell>
        <mxCell id="fN-8wy9HbrontkFJWj6x-112" style="rounded=0;orthogonalLoop=1;jettySize=auto;html=1;exitX=1;exitY=0.5;exitDx=0;exitDy=0;endArrow=none;endFill=0;" edge="1" parent="1" source="fN-8wy9HbrontkFJWj6x-108" target="fN-8wy9HbrontkFJWj6x-104">
          <mxGeometry relative="1" as="geometry" />
        </mxCell>
        <mxCell id="fN-8wy9HbrontkFJWj6x-108" value="&lt;span style=&quot;border-bottom: 1px dotted&quot;&gt;Physical Address&lt;/span&gt;" style="ellipse;whiteSpace=wrap;html=1;align=center;" vertex="1" parent="1">
          <mxGeometry x="2619" y="-552" width="100" height="40" as="geometry" />
        </mxCell>
        <mxCell id="fN-8wy9HbrontkFJWj6x-134" style="rounded=0;orthogonalLoop=1;jettySize=auto;html=1;exitX=0;exitY=1;exitDx=0;exitDy=0;entryX=0.5;entryY=0;entryDx=0;entryDy=0;endArrow=none;endFill=0;" edge="1" parent="1" source="fN-8wy9HbrontkFJWj6x-109" target="fN-8wy9HbrontkFJWj6x-132">
          <mxGeometry relative="1" as="geometry" />
        </mxCell>
        <mxCell id="fN-8wy9HbrontkFJWj6x-109" value="&lt;span style=&quot;border-bottom: 1px dotted&quot;&gt;Model Number&lt;/span&gt;" style="ellipse;whiteSpace=wrap;html=1;align=center;" vertex="1" parent="1">
          <mxGeometry x="3166" y="-840" width="100" height="40" as="geometry" />
        </mxCell>
        <mxCell id="fN-8wy9HbrontkFJWj6x-113" value="Order" style="whiteSpace=wrap;html=1;align=center;" vertex="1" parent="1">
          <mxGeometry x="3045" y="-626" width="100" height="40" as="geometry" />
        </mxCell>
        <mxCell id="fN-8wy9HbrontkFJWj6x-122" style="rounded=0;orthogonalLoop=1;jettySize=auto;html=1;exitX=0;exitY=0.5;exitDx=0;exitDy=0;entryX=1;entryY=0;entryDx=0;entryDy=0;endArrow=none;endFill=0;" edge="1" parent="1" source="fN-8wy9HbrontkFJWj6x-115" target="fN-8wy9HbrontkFJWj6x-113">
          <mxGeometry relative="1" as="geometry" />
        </mxCell>
        <mxCell id="fN-8wy9HbrontkFJWj6x-115" value="Order Number" style="ellipse;whiteSpace=wrap;html=1;align=center;fontStyle=4;" vertex="1" parent="1">
          <mxGeometry x="3186" y="-670" width="100" height="40" as="geometry" />
        </mxCell>
        <mxCell id="fN-8wy9HbrontkFJWj6x-121" style="rounded=0;orthogonalLoop=1;jettySize=auto;html=1;exitX=0;exitY=0.5;exitDx=0;exitDy=0;endArrow=none;endFill=0;" edge="1" parent="1" source="fN-8wy9HbrontkFJWj6x-117" target="fN-8wy9HbrontkFJWj6x-113">
          <mxGeometry relative="1" as="geometry" />
        </mxCell>
        <mxCell id="fN-8wy9HbrontkFJWj6x-117" value="Date" style="ellipse;whiteSpace=wrap;html=1;align=center;" vertex="1" parent="1">
          <mxGeometry x="3182" y="-608" width="100" height="40" as="geometry" />
        </mxCell>
        <mxCell id="fN-8wy9HbrontkFJWj6x-120" value="" style="fontSize=12;html=1;endArrow=ERzeroToMany;startArrow=ERzeroToOne;rounded=0;endSize=10;startSize=10;exitX=0.5;exitY=1;exitDx=0;exitDy=0;entryX=0;entryY=0;entryDx=0;entryDy=0;" edge="1" parent="1" source="fN-8wy9HbrontkFJWj6x-113" target="fN-8wy9HbrontkFJWj6x-163">
          <mxGeometry width="100" height="100" relative="1" as="geometry">
            <mxPoint x="2846" y="-536" as="sourcePoint" />
            <mxPoint x="3190" y="-521" as="targetPoint" />
          </mxGeometry>
        </mxCell>
        <mxCell id="fN-8wy9HbrontkFJWj6x-123" value="STORE" style="whiteSpace=wrap;html=1;align=center;" vertex="1" parent="1">
          <mxGeometry x="2900" y="-703" width="100" height="40" as="geometry" />
        </mxCell>
        <mxCell id="fN-8wy9HbrontkFJWj6x-126" value="" style="fontSize=12;html=1;endArrow=ERzeroToMany;startArrow=ERzeroToOne;rounded=0;entryX=0;entryY=0.5;entryDx=0;entryDy=0;endSize=10;startSize=10;exitX=1;exitY=0.5;exitDx=0;exitDy=0;" edge="1" parent="1" source="fN-8wy9HbrontkFJWj6x-104" target="fN-8wy9HbrontkFJWj6x-113">
          <mxGeometry width="100" height="100" relative="1" as="geometry">
            <mxPoint x="2879" y="-605" as="sourcePoint" />
            <mxPoint x="2974" y="-540" as="targetPoint" />
          </mxGeometry>
        </mxCell>
        <mxCell id="fN-8wy9HbrontkFJWj6x-127" value="Hockey Team" style="swimlane;fontStyle=0;childLayout=stackLayout;horizontal=1;startSize=26;fillColor=none;horizontalStack=0;resizeParent=1;resizeParentMax=0;resizeLast=0;collapsible=1;marginBottom=0;whiteSpace=wrap;html=1;" vertex="1" parent="1">
          <mxGeometry x="2160" y="-251" width="140" height="156" as="geometry" />
        </mxCell>
        <mxCell id="fN-8wy9HbrontkFJWj6x-128" value="Name" style="text;strokeColor=none;fillColor=none;align=left;verticalAlign=top;spacingLeft=4;spacingRight=4;overflow=hidden;rotatable=0;points=[[0,0.5],[1,0.5]];portConstraint=eastwest;whiteSpace=wrap;html=1;" vertex="1" parent="fN-8wy9HbrontkFJWj6x-127">
          <mxGeometry y="26" width="140" height="26" as="geometry" />
        </mxCell>
        <mxCell id="fN-8wy9HbrontkFJWj6x-129" value="Record" style="text;strokeColor=none;fillColor=none;align=left;verticalAlign=top;spacingLeft=4;spacingRight=4;overflow=hidden;rotatable=0;points=[[0,0.5],[1,0.5]];portConstraint=eastwest;whiteSpace=wrap;html=1;" vertex="1" parent="fN-8wy9HbrontkFJWj6x-127">
          <mxGeometry y="52" width="140" height="26" as="geometry" />
        </mxCell>
        <mxCell id="fN-8wy9HbrontkFJWj6x-130" value="Players" style="text;strokeColor=none;fillColor=none;align=left;verticalAlign=top;spacingLeft=4;spacingRight=4;overflow=hidden;rotatable=0;points=[[0,0.5],[1,0.5]];portConstraint=eastwest;whiteSpace=wrap;html=1;" vertex="1" parent="fN-8wy9HbrontkFJWj6x-127">
          <mxGeometry y="78" width="140" height="26" as="geometry" />
        </mxCell>
        <mxCell id="fN-8wy9HbrontkFJWj6x-135" value="Captain" style="text;strokeColor=none;fillColor=none;align=left;verticalAlign=top;spacingLeft=4;spacingRight=4;overflow=hidden;rotatable=0;points=[[0,0.5],[1,0.5]];portConstraint=eastwest;whiteSpace=wrap;html=1;" vertex="1" parent="fN-8wy9HbrontkFJWj6x-127">
          <mxGeometry y="104" width="140" height="26" as="geometry" />
        </mxCell>
        <mxCell id="fN-8wy9HbrontkFJWj6x-160" value="Coach" style="text;strokeColor=none;fillColor=none;align=left;verticalAlign=top;spacingLeft=4;spacingRight=4;overflow=hidden;rotatable=0;points=[[0,0.5],[1,0.5]];portConstraint=eastwest;whiteSpace=wrap;html=1;" vertex="1" parent="fN-8wy9HbrontkFJWj6x-127">
          <mxGeometry y="130" width="140" height="26" as="geometry" />
        </mxCell>
        <mxCell id="fN-8wy9HbrontkFJWj6x-132" value="Product" style="shape=ext;margin=3;double=1;whiteSpace=wrap;html=1;align=center;" vertex="1" parent="1">
          <mxGeometry x="3045" y="-768" width="100" height="40" as="geometry" />
        </mxCell>
        <mxCell id="fN-8wy9HbrontkFJWj6x-136" value="Players" style="swimlane;fontStyle=0;childLayout=stackLayout;horizontal=1;startSize=26;fillColor=none;horizontalStack=0;resizeParent=1;resizeParentMax=0;resizeLast=0;collapsible=1;marginBottom=0;whiteSpace=wrap;html=1;" vertex="1" parent="1">
          <mxGeometry x="2403" y="-251" width="140" height="78" as="geometry" />
        </mxCell>
        <mxCell id="fN-8wy9HbrontkFJWj6x-137" value="Number" style="text;strokeColor=none;fillColor=none;align=left;verticalAlign=top;spacingLeft=4;spacingRight=4;overflow=hidden;rotatable=0;points=[[0,0.5],[1,0.5]];portConstraint=eastwest;whiteSpace=wrap;html=1;" vertex="1" parent="fN-8wy9HbrontkFJWj6x-136">
          <mxGeometry y="26" width="140" height="26" as="geometry" />
        </mxCell>
        <mxCell id="fN-8wy9HbrontkFJWj6x-138" value="Position" style="text;strokeColor=none;fillColor=none;align=left;verticalAlign=top;spacingLeft=4;spacingRight=4;overflow=hidden;rotatable=0;points=[[0,0.5],[1,0.5]];portConstraint=eastwest;whiteSpace=wrap;html=1;" vertex="1" parent="fN-8wy9HbrontkFJWj6x-136">
          <mxGeometry y="52" width="140" height="26" as="geometry" />
        </mxCell>
        <mxCell id="fN-8wy9HbrontkFJWj6x-145" value="Coach" style="swimlane;fontStyle=0;childLayout=stackLayout;horizontal=1;startSize=26;fillColor=none;horizontalStack=0;resizeParent=1;resizeParentMax=0;resizeLast=0;collapsible=1;marginBottom=0;whiteSpace=wrap;html=1;" vertex="1" parent="1">
          <mxGeometry x="2403" y="-149" width="140" height="78" as="geometry" />
        </mxCell>
        <mxCell id="fN-8wy9HbrontkFJWj6x-146" value="Level of Accredition" style="text;strokeColor=none;fillColor=none;align=left;verticalAlign=top;spacingLeft=4;spacingRight=4;overflow=hidden;rotatable=0;points=[[0,0.5],[1,0.5]];portConstraint=eastwest;whiteSpace=wrap;html=1;" vertex="1" parent="fN-8wy9HbrontkFJWj6x-145">
          <mxGeometry y="26" width="140" height="26" as="geometry" />
        </mxCell>
        <mxCell id="fN-8wy9HbrontkFJWj6x-147" value="Years of Experience" style="text;strokeColor=none;fillColor=none;align=left;verticalAlign=top;spacingLeft=4;spacingRight=4;overflow=hidden;rotatable=0;points=[[0,0.5],[1,0.5]];portConstraint=eastwest;whiteSpace=wrap;html=1;" vertex="1" parent="fN-8wy9HbrontkFJWj6x-145">
          <mxGeometry y="52" width="140" height="26" as="geometry" />
        </mxCell>
        <mxCell id="fN-8wy9HbrontkFJWj6x-149" value="People" style="swimlane;fontStyle=0;childLayout=stackLayout;horizontal=1;startSize=26;fillColor=none;horizontalStack=0;resizeParent=1;resizeParentMax=0;resizeLast=0;collapsible=1;marginBottom=0;whiteSpace=wrap;html=1;" vertex="1" parent="1">
          <mxGeometry x="2668" y="-251" width="140" height="78" as="geometry" />
        </mxCell>
        <mxCell id="fN-8wy9HbrontkFJWj6x-150" value="Name" style="text;strokeColor=none;fillColor=none;align=left;verticalAlign=top;spacingLeft=4;spacingRight=4;overflow=hidden;rotatable=0;points=[[0,0.5],[1,0.5]];portConstraint=eastwest;whiteSpace=wrap;html=1;" vertex="1" parent="fN-8wy9HbrontkFJWj6x-149">
          <mxGeometry y="26" width="140" height="26" as="geometry" />
        </mxCell>
        <mxCell id="fN-8wy9HbrontkFJWj6x-151" value="Address" style="text;strokeColor=none;fillColor=none;align=left;verticalAlign=top;spacingLeft=4;spacingRight=4;overflow=hidden;rotatable=0;points=[[0,0.5],[1,0.5]];portConstraint=eastwest;whiteSpace=wrap;html=1;" vertex="1" parent="fN-8wy9HbrontkFJWj6x-149">
          <mxGeometry y="52" width="140" height="26" as="geometry" />
        </mxCell>
        <mxCell id="fN-8wy9HbrontkFJWj6x-153" value="" style="edgeStyle=entityRelationEdgeStyle;fontSize=12;html=1;endArrow=ERmany;startArrow=ERmany;rounded=0;entryX=0;entryY=0.25;entryDx=0;entryDy=0;exitX=1;exitY=0.25;exitDx=0;exitDy=0;" edge="1" parent="1" source="fN-8wy9HbrontkFJWj6x-136" target="fN-8wy9HbrontkFJWj6x-149">
          <mxGeometry width="100" height="100" relative="1" as="geometry">
            <mxPoint x="2567" y="-162" as="sourcePoint" />
            <mxPoint x="2667" y="-262" as="targetPoint" />
          </mxGeometry>
        </mxCell>
        <mxCell id="fN-8wy9HbrontkFJWj6x-155" value="" style="edgeStyle=entityRelationEdgeStyle;fontSize=12;html=1;endArrow=ERmany;startArrow=ERmany;rounded=0;entryX=0;entryY=0.25;entryDx=0;entryDy=0;exitX=1;exitY=0.25;exitDx=0;exitDy=0;" edge="1" parent="1" source="fN-8wy9HbrontkFJWj6x-145" target="fN-8wy9HbrontkFJWj6x-149">
          <mxGeometry width="100" height="100" relative="1" as="geometry">
            <mxPoint x="2553" y="-89" as="sourcePoint" />
            <mxPoint x="2678" y="-89" as="targetPoint" />
          </mxGeometry>
        </mxCell>
        <mxCell id="fN-8wy9HbrontkFJWj6x-158" value="" style="edgeStyle=entityRelationEdgeStyle;fontSize=12;html=1;endArrow=ERmany;rounded=0;entryX=0;entryY=0.25;entryDx=0;entryDy=0;exitX=1;exitY=0.5;exitDx=0;exitDy=0;" edge="1" parent="1" source="fN-8wy9HbrontkFJWj6x-130" target="fN-8wy9HbrontkFJWj6x-136">
          <mxGeometry width="100" height="100" relative="1" as="geometry">
            <mxPoint x="2297" y="-73" as="sourcePoint" />
            <mxPoint x="2397" y="-173" as="targetPoint" />
          </mxGeometry>
        </mxCell>
        <mxCell id="fN-8wy9HbrontkFJWj6x-159" value="" style="edgeStyle=entityRelationEdgeStyle;fontSize=12;html=1;endArrow=ERoneToMany;rounded=0;entryX=0;entryY=0.25;entryDx=0;entryDy=0;" edge="1" parent="1" source="fN-8wy9HbrontkFJWj6x-160" target="fN-8wy9HbrontkFJWj6x-145">
          <mxGeometry width="100" height="100" relative="1" as="geometry">
            <mxPoint x="2281" y="-49" as="sourcePoint" />
            <mxPoint x="2381" y="-149" as="targetPoint" />
          </mxGeometry>
        </mxCell>
        <mxCell id="fN-8wy9HbrontkFJWj6x-161" value="" style="edgeStyle=entityRelationEdgeStyle;fontSize=12;html=1;endArrow=ERmandOne;startArrow=ERmandOne;rounded=0;entryX=0;entryY=0.5;entryDx=0;entryDy=0;exitX=1;exitY=0.5;exitDx=0;exitDy=0;" edge="1" parent="1" source="fN-8wy9HbrontkFJWj6x-135" target="fN-8wy9HbrontkFJWj6x-138">
          <mxGeometry width="100" height="100" relative="1" as="geometry">
            <mxPoint x="2300" y="-79" as="sourcePoint" />
            <mxPoint x="2400" y="-179" as="targetPoint" />
          </mxGeometry>
        </mxCell>
        <mxCell id="fN-8wy9HbrontkFJWj6x-162" value="" style="edgeStyle=entityRelationEdgeStyle;fontSize=12;html=1;endArrow=ERzeroToMany;endFill=1;startArrow=ERzeroToMany;rounded=0;entryX=0;entryY=0.25;entryDx=0;entryDy=0;exitX=1.004;exitY=0.13;exitDx=0;exitDy=0;exitPerimeter=0;" edge="1" parent="1" source="fN-8wy9HbrontkFJWj6x-127" target="fN-8wy9HbrontkFJWj6x-141">
          <mxGeometry width="100" height="100" relative="1" as="geometry">
            <mxPoint x="2429" y="-45" as="sourcePoint" />
            <mxPoint x="2529" y="-145" as="targetPoint" />
          </mxGeometry>
        </mxCell>
        <mxCell id="fN-8wy9HbrontkFJWj6x-141" value="Games" style="swimlane;fontStyle=0;childLayout=stackLayout;horizontal=1;startSize=26;fillColor=none;horizontalStack=0;resizeParent=1;resizeParentMax=0;resizeLast=0;collapsible=1;marginBottom=0;whiteSpace=wrap;html=1;" vertex="1" parent="1">
          <mxGeometry x="2403" y="-369" width="140" height="104" as="geometry" />
        </mxCell>
        <mxCell id="fN-8wy9HbrontkFJWj6x-142" value="Score" style="text;strokeColor=none;fillColor=none;align=left;verticalAlign=top;spacingLeft=4;spacingRight=4;overflow=hidden;rotatable=0;points=[[0,0.5],[1,0.5]];portConstraint=eastwest;whiteSpace=wrap;html=1;" vertex="1" parent="fN-8wy9HbrontkFJWj6x-141">
          <mxGeometry y="26" width="140" height="26" as="geometry" />
        </mxCell>
        <mxCell id="fN-8wy9HbrontkFJWj6x-144" value="Location" style="text;strokeColor=none;fillColor=none;align=left;verticalAlign=top;spacingLeft=4;spacingRight=4;overflow=hidden;rotatable=0;points=[[0,0.5],[1,0.5]];portConstraint=eastwest;whiteSpace=wrap;html=1;" vertex="1" parent="fN-8wy9HbrontkFJWj6x-141">
          <mxGeometry y="52" width="140" height="26" as="geometry" />
        </mxCell>
        <mxCell id="fN-8wy9HbrontkFJWj6x-143" value="Teams" style="text;strokeColor=none;fillColor=none;align=left;verticalAlign=top;spacingLeft=4;spacingRight=4;overflow=hidden;rotatable=0;points=[[0,0.5],[1,0.5]];portConstraint=eastwest;whiteSpace=wrap;html=1;" vertex="1" parent="fN-8wy9HbrontkFJWj6x-141">
          <mxGeometry y="78" width="140" height="26" as="geometry" />
        </mxCell>
        <mxCell id="fN-8wy9HbrontkFJWj6x-163" value="Product" style="ellipse;shape=doubleEllipse;margin=3;whiteSpace=wrap;html=1;align=center;" vertex="1" parent="1">
          <mxGeometry x="3107" y="-538" width="100" height="40" as="geometry" />
        </mxCell>
        <mxCell id="fN-8wy9HbrontkFJWj6x-167" style="rounded=0;orthogonalLoop=1;jettySize=auto;html=1;entryX=0.5;entryY=1;entryDx=0;entryDy=0;endArrow=none;endFill=0;" edge="1" parent="1" source="fN-8wy9HbrontkFJWj6x-166">
          <mxGeometry relative="1" as="geometry">
            <mxPoint x="1758.0000000000002" y="-663" as="targetPoint" />
          </mxGeometry>
        </mxCell>
        <mxCell id="fN-8wy9HbrontkFJWj6x-166" value="Main / Assistant" style="ellipse;shape=doubleEllipse;margin=3;whiteSpace=wrap;html=1;align=center;" vertex="1" parent="1">
          <mxGeometry x="1706" y="-630" width="100" height="40" as="geometry" />
        </mxCell>
        <mxCell id="fN-8wy9HbrontkFJWj6x-168" value="Referees" style="whiteSpace=wrap;html=1;align=center;" vertex="1" parent="1">
          <mxGeometry x="1709" y="-703" width="100" height="40" as="geometry" />
        </mxCell>
      </root>
    </mxGraphModel>
  </diagram>
</mxfile>
